<svg preserveAspectRatio="none" width="100%" height="100%" overflow="visible" style="display: block;" viewBox="0 0 237.73 280.373" fill="none" xmlns="http://www.w3.org/2000/svg">
<g id="Group 2609453">
<path id="Vector 4451" d="M145.144 273.224L146.761 273.707C159.088 277.388 172.065 270.38 175.746 258.052C176.467 255.64 176.791 253.126 176.707 250.609L170.08 52.176C169.639 38.9708 160.81 27.524 148.151 23.7428L112.757 13.172C106.108 11.1862 98.2844 8.85065 90.1791 6.4302C80.0476 3.40464 65.8117 9.49973 61.9348 22.482L43.5907 83.9102C41.5949 91.3614 41.7833 107.512 58.5024 112.505C79.4013 118.746 112.44 88.9511 122.219 87.3879C131.998 85.8246 145.391 89.4795 149.459 102.42C153.527 115.361 144.683 129.963 133.448 131.782C122.214 133.6 58.7137 129.122 47.3519 130.212C35.99 131.303 28.1777 135.523 23.4043 151.507L18.6309 167.492L7.75618 203.908C3.47255 218.252 11.6284 233.353 25.9728 237.637C33.2886 239.821 41.1865 238.819 47.725 234.877L79.5164 215.709C92.3691 207.96 109.103 213.705 114.485 227.714L129.701 259.951C132.73 266.368 138.345 271.194 145.144 273.224Z" stroke="var(--stroke-0, white)" stroke-width="2"/>
</g>
</svg>
