<svg preserveAspectRatio="none" width="100%" height="100%" overflow="visible" style="display: block;" viewBox="0 0 409.803 391.689" fill="none" xmlns="http://www.w3.org/2000/svg">
<g id="Group 2609452">
<path id="Vector" d="M123.645 231.242L123.644 231.22C123.598 229.793 123.374 228.167 122.941 226.452C120.223 215.682 111.851 208.033 103.029 200.883C94.1174 193.66 84.7645 186.948 79.383 177.964L7.92569 39.1218C3.4189 30.3235 5.35581 19.6054 12.7602 12.5037C20.1744 5.39278 31.4077 3.50897 40.6373 7.84852L181.647 74.1481C188.534 77.3863 193.277 83.6298 194.421 90.9097C195.565 98.1877 192.977 105.645 187.445 110.95L151.557 145.371C141.232 155.275 141.034 171.152 151.116 180.812C161.174 190.449 177.662 190.252 187.964 180.372L223.852 145.951L223.873 145.93L223.893 145.908C226.028 143.613 232.574 138.855 241.192 138.752L382.783 137.061C386.85 137.241 392.943 138.633 397.967 142.199C402.959 145.742 406.917 151.437 406.806 160.36C406.706 168.343 403.122 173.477 398.635 176.957C394.106 180.468 388.659 182.293 384.838 183.554L309.133 203.494L309.079 203.51L309.026 203.53C305.16 205.024 299.142 206.704 294.165 210.355C289.247 213.963 285.31 219.496 284.96 228.589L284.937 229.48C284.612 236.434 288.997 250.809 308.56 254.278C318.018 255.955 332.453 259.941 346.744 263.923C360.992 267.893 375.105 271.862 383.81 273.461C387.446 274.13 392.861 275.781 397.318 279.183C401.742 282.559 405.22 287.649 405.124 295.308C404.931 310.8 393.132 317.113 386.298 323.667L325.194 381.895C322.006 384.715 318.255 385.992 314.12 386.567C309.939 387.149 305.492 387.005 300.874 387.06L162.176 388.717C145.12 388.92 129.877 378.815 123.573 363.124C119.802 353.739 111.822 346.76 101.996 344.252L97.6683 343.147L97.6449 343.141L40.0108 329.92C31.2872 327.918 21.7085 324.78 14.4307 319.947C7.16432 315.122 2.33194 308.713 2.70645 300.146C3.14298 290.161 10.2518 281.412 20.318 278.504L20.799 278.37L103.075 256.372C114.468 253.319 123.503 242.649 123.645 231.264L123.645 231.242Z" stroke="var(--stroke-0, white)" stroke-width="2"/>
</g>
</svg>
