<svg preserveAspectRatio="none" width="100%" height="100%" overflow="visible" style="display: block;" viewBox="0 0 409.803 391.689" fill="none" xmlns="http://www.w3.org/2000/svg">
<g id="Group 2609452">
<path id="Vector" d="M123.645 231.242L123.644 231.22C123.598 229.793 123.374 228.167 122.941 226.451C120.223 215.682 111.851 208.033 103.029 200.883C94.1175 193.66 84.7647 186.948 79.3831 177.964L7.92583 39.1217C3.41904 30.3234 5.35595 19.6053 12.7604 12.5036C20.1746 5.39265 31.4079 3.50883 40.6374 7.84838L181.646 74.148C188.534 77.3861 193.277 83.6296 194.421 90.9095C195.565 98.1876 192.977 105.644 187.445 110.95L151.558 145.371C141.232 155.275 141.034 171.152 151.116 180.812C161.174 190.449 177.662 190.252 187.964 180.372L223.852 145.951L223.874 145.93L223.893 145.908C226.028 143.613 232.574 138.855 241.193 138.752L382.783 137.061C386.85 137.24 392.943 138.633 397.968 142.199C402.959 145.742 406.917 151.437 406.806 160.36C406.706 168.343 403.122 173.477 398.635 176.956C394.106 180.468 388.659 182.293 384.838 183.554L309.134 203.494L309.079 203.51L309.026 203.53C305.16 205.024 299.142 206.704 294.166 210.355C289.247 213.963 285.31 219.496 284.96 228.589L284.937 229.48C284.612 236.434 288.997 250.809 308.56 254.278C318.018 255.954 332.453 259.94 346.744 263.923C360.992 267.893 375.105 271.862 383.81 273.461C387.446 274.13 392.86 275.781 397.317 279.182C401.741 282.559 405.22 287.649 405.125 295.308C404.931 310.8 393.132 317.113 386.298 323.667L325.194 381.895C322.006 384.715 318.255 385.991 314.12 386.567C309.939 387.149 305.492 387.005 300.874 387.06L162.176 388.717C145.12 388.92 129.877 378.815 123.573 363.124C119.802 353.739 111.822 346.759 101.996 344.252L97.6684 343.147L97.645 343.141L40.011 329.919C31.2874 327.917 21.7086 324.78 14.4309 319.947C7.16447 315.122 2.3321 308.713 2.7066 300.145C3.14314 290.161 10.252 281.412 20.3181 278.503L20.7992 278.37L103.075 256.371C114.468 253.319 123.503 242.649 123.645 231.264L123.645 231.242Z" stroke="var(--stroke-0, white)" stroke-width="2"/>
</g>
</svg>
