<svg width="178" height="178" viewBox="0 0 178 178" fill="none" xmlns="http://www.w3.org/2000/svg">
<rect width="178" height="178" rx="16" fill="#C6E5C6"/>
<path d="M64.9523 31.7432H46.2295C43.5975 31.7432 41.4639 33.8765 41.4639 36.508V141.853C41.4639 144.485 43.5975 146.618 46.2295 146.618H64.9523C67.5842 146.618 69.7179 144.485 69.7179 141.853V36.508C69.7179 33.8765 67.5842 31.7432 64.9523 31.7432Z" fill="black"/>
<path d="M122.98 84.5854C122.366 84.502 121.753 84.4425 121.145 84.3948C120.615 84.377 120.115 84.2578 119.596 84.0375C117.267 83.0666 116.171 80.3923 117.142 78.0635C117.464 77.2892 117.952 76.6638 118.578 76.1933C122.003 73.5012 124.815 69.9275 126.614 65.6213C132.243 52.1546 125.887 36.6748 112.418 31.0463C106.807 28.6996 100.844 28.4435 95.3872 29.9087C89.9306 31.3679 84.8969 34.5723 81.2095 39.4086C72.3574 51.017 74.5973 67.5987 86.2015 76.4494C89.9127 79.2786 94.1362 80.9701 98.4491 81.5895C99.2235 81.6848 99.9621 81.9826 100.629 82.4889C102.637 84.0196 103.018 86.8845 101.493 88.8857C101.154 89.3324 100.778 89.6838 100.331 89.9697C99.8251 90.3152 99.3247 90.6725 98.8363 91.0537C84.6646 102.001 82.0435 122.359 92.9925 136.534C101.231 147.202 114.801 151.317 127.049 148.041C139.296 144.754 148.988 134.402 150.793 121.048C153.188 103.305 140.738 86.9798 122.992 84.5854H122.98Z" fill="black"/>
</svg>
